<mxfile host="app.diagrams.net" agent="Mozilla/5.0 (Windows NT 10.0; Win64; x64; rv:134.0) Gecko/20100101 Firefox/134.0" version="26.0.6">
  <diagram name="第 1 页" id="MoQwRR5U6C-U2B5KygU_">
    <mxGraphModel dx="1050" dy="538" grid="1" gridSize="10" guides="1" tooltips="1" connect="1" arrows="1" fold="1" page="1" pageScale="1" pageWidth="827" pageHeight="1169" math="0" shadow="0">
      <root>
        <mxCell id="0" />
        <mxCell id="1" parent="0" />
        <mxCell id="ni80edrDDqg6BsvQ1Z0_-8" value="" style="edgeStyle=orthogonalEdgeStyle;rounded=0;orthogonalLoop=1;jettySize=auto;html=1;" parent="1" source="ni80edrDDqg6BsvQ1Z0_-1" target="ni80edrDDqg6BsvQ1Z0_-2" edge="1">
          <mxGeometry relative="1" as="geometry" />
        </mxCell>
        <mxCell id="ni80edrDDqg6BsvQ1Z0_-1" value="&lt;div&gt;&lt;font style=&quot;font-size: 16px;&quot;&gt;读取dem数据，制作初始地图数据&lt;/font&gt;&lt;/div&gt;" style="rounded=0;whiteSpace=wrap;html=1;" parent="1" vertex="1">
          <mxGeometry x="180" y="110" width="370" height="70" as="geometry" />
        </mxCell>
        <mxCell id="ni80edrDDqg6BsvQ1Z0_-7" value="" style="edgeStyle=orthogonalEdgeStyle;rounded=0;orthogonalLoop=1;jettySize=auto;html=1;" parent="1" source="ni80edrDDqg6BsvQ1Z0_-2" target="ni80edrDDqg6BsvQ1Z0_-3" edge="1">
          <mxGeometry relative="1" as="geometry" />
        </mxCell>
        <mxCell id="ni80edrDDqg6BsvQ1Z0_-2" value="&lt;font style=&quot;font-size: 16px;&quot;&gt;以角度p为步长，旋转地图&lt;/font&gt;" style="rounded=0;whiteSpace=wrap;html=1;" parent="1" vertex="1">
          <mxGeometry x="180" y="220" width="370" height="40" as="geometry" />
        </mxCell>
        <mxCell id="ni80edrDDqg6BsvQ1Z0_-6" value="" style="edgeStyle=orthogonalEdgeStyle;rounded=0;orthogonalLoop=1;jettySize=auto;html=1;" parent="1" source="ni80edrDDqg6BsvQ1Z0_-3" target="ni80edrDDqg6BsvQ1Z0_-4" edge="1">
          <mxGeometry relative="1" as="geometry" />
        </mxCell>
        <mxCell id="ni80edrDDqg6BsvQ1Z0_-3" value="&lt;font style=&quot;font-size: 16px;&quot;&gt;对旋转完的地图做数据处理，原本网格点的高度旋转到点与点的线，在这一步计算地图旋转之后的范围约束和约束之内的网格点的高度。&lt;/font&gt;" style="rounded=0;whiteSpace=wrap;html=1;" parent="1" vertex="1">
          <mxGeometry x="180" y="310" width="370" height="80" as="geometry" />
        </mxCell>
        <mxCell id="ni80edrDDqg6BsvQ1Z0_-9" value="" style="edgeStyle=orthogonalEdgeStyle;rounded=0;orthogonalLoop=1;jettySize=auto;html=1;entryX=0.5;entryY=0;entryDx=0;entryDy=0;" parent="1" source="ni80edrDDqg6BsvQ1Z0_-4" target="ni80edrDDqg6BsvQ1Z0_-10" edge="1">
          <mxGeometry relative="1" as="geometry">
            <mxPoint x="365" y="540" as="targetPoint" />
          </mxGeometry>
        </mxCell>
        <mxCell id="ni80edrDDqg6BsvQ1Z0_-4" value="&lt;font style=&quot;font-size: 16px;&quot;&gt;使用牛耕法，这一步要确认以原点为起点，对于一次飞不完全，只计算工作路程&lt;/font&gt;" style="rounded=0;whiteSpace=wrap;html=1;" parent="1" vertex="1">
          <mxGeometry x="180" y="440" width="370" height="60" as="geometry" />
        </mxCell>
        <mxCell id="ni80edrDDqg6BsvQ1Z0_-11" style="edgeStyle=orthogonalEdgeStyle;rounded=0;orthogonalLoop=1;jettySize=auto;html=1;entryX=1;entryY=0.5;entryDx=0;entryDy=0;exitX=1;exitY=0.5;exitDx=0;exitDy=0;" parent="1" source="ni80edrDDqg6BsvQ1Z0_-10" target="ni80edrDDqg6BsvQ1Z0_-2" edge="1">
          <mxGeometry relative="1" as="geometry">
            <Array as="points">
              <mxPoint x="640" y="610" />
              <mxPoint x="640" y="240" />
            </Array>
          </mxGeometry>
        </mxCell>
        <mxCell id="ni80edrDDqg6BsvQ1Z0_-12" value="&lt;div&gt;否&lt;/div&gt;" style="edgeLabel;html=1;align=center;verticalAlign=middle;resizable=0;points=[];" parent="ni80edrDDqg6BsvQ1Z0_-11" vertex="1" connectable="0">
          <mxGeometry x="-0.1791" y="-1" relative="1" as="geometry">
            <mxPoint as="offset" />
          </mxGeometry>
        </mxCell>
        <mxCell id="ni80edrDDqg6BsvQ1Z0_-14" value="" style="edgeStyle=orthogonalEdgeStyle;rounded=0;orthogonalLoop=1;jettySize=auto;html=1;" parent="1" source="ni80edrDDqg6BsvQ1Z0_-10" target="ni80edrDDqg6BsvQ1Z0_-13" edge="1">
          <mxGeometry relative="1" as="geometry" />
        </mxCell>
        <mxCell id="ni80edrDDqg6BsvQ1Z0_-15" value="是" style="edgeLabel;html=1;align=center;verticalAlign=middle;resizable=0;points=[];" parent="ni80edrDDqg6BsvQ1Z0_-14" vertex="1" connectable="0">
          <mxGeometry x="-0.1259" y="-1" relative="1" as="geometry">
            <mxPoint as="offset" />
          </mxGeometry>
        </mxCell>
        <mxCell id="ni80edrDDqg6BsvQ1Z0_-10" value="&lt;font style=&quot;font-size: 16px;&quot;&gt;判断旋转角度是否到达180度&lt;/font&gt;" style="rhombus;whiteSpace=wrap;html=1;" parent="1" vertex="1">
          <mxGeometry x="233.13" y="550" width="263.75" height="120" as="geometry" />
        </mxCell>
        <mxCell id="ni80edrDDqg6BsvQ1Z0_-13" value="&lt;font style=&quot;font-size: 16px;&quot;&gt;输出最短路径&lt;/font&gt;" style="whiteSpace=wrap;html=1;" parent="1" vertex="1">
          <mxGeometry x="305" y="720" width="120" height="60" as="geometry" />
        </mxCell>
      </root>
    </mxGraphModel>
  </diagram>
</mxfile>
